<svg xmlns="http://www.w3.org/2000/svg" width="512" height="512" viewBox="0 0 512 512">
  <defs>
    <linearGradient id="bg" x1="0%" y1="0%" x2="100%" y2="100%">
      <stop offset="0%" style="stop-color:#1a1a2e"/>
      <stop offset="100%" style="stop-color:#16213e"/>
    </linearGradient>
    <linearGradient id="accent" x1="0%" y1="0%" x2="100%" y2="100%">
      <stop offset="0%" style="stop-color:#00d9ff"/>
      <stop offset="100%" style="stop-color:#00a8cc"/>
    </linearGradient>
  </defs>
  
  <!-- Background -->
  <rect width="512" height="512" rx="100" fill="url(#bg)"/>
  
  <!-- Gas flame icon -->
  <path d="M256 100 C180 180, 140 260, 180 340 C200 380, 240 400, 256 400 C272 400, 312 380, 332 340 C372 260, 332 180, 256 100 Z" 
        fill="url(#accent)" opacity="0.9"/>
  
  <!-- Inner flame -->
  <path d="M256 180 C220 220, 200 260, 220 310 C230 340, 250 350, 256 350 C262 350, 282 340, 292 310 C312 260, 292 220, 256 180 Z" 
        fill="#00ff88" opacity="0.8"/>
  
  <!-- Warning circle -->
  <circle cx="256" cy="280" r="30" fill="none" stroke="#ffffff" stroke-width="6" opacity="0.9"/>
  <text x="256" y="292" font-size="36" font-weight="bold" fill="#ffffff" text-anchor="middle">!</text>
</svg>
